<?xml version="1.0" encoding="UTF-8" standalone="no"?>
<svg
   width="1365.12"
   height="1365.12"
   viewBox="0 0 14222 14222"
   version="1.1"
   id="svg6"
   sodipodi:docname="facebook-black.svg"
   inkscape:version="1.1 (c68e22c387, 2021-05-23)"
   xmlns:inkscape="http://www.inkscape.org/namespaces/inkscape"
   xmlns:sodipodi="http://sodipodi.sourceforge.net/DTD/sodipodi-0.dtd"
   xmlns="http://www.w3.org/2000/svg"
   xmlns:svg="http://www.w3.org/2000/svg">
  <defs
     id="defs10" />
  <sodipodi:namedview
     id="namedview8"
     pagecolor="#ffffff"
     bordercolor="#666666"
     borderopacity="1.0"
     inkscape:pageshadow="2"
     inkscape:pageopacity="0.0"
     inkscape:pagecheckerboard="true"
     showgrid="false"
     inkscape:zoom="0.38091889"
     inkscape:cx="823.00985"
     inkscape:cy="563.11201"
     inkscape:window-width="1600"
     inkscape:window-height="837"
     inkscape:window-x="-8"
     inkscape:window-y="-8"
     inkscape:window-maximized="1"
     inkscape:current-layer="svg6" />
  <path
     d="m 9879,9168 315,-2056 H 8222 V 5778 c 0,-562 275,-1111 1159,-1111 h 897 V 2917 c 0,0 -814,-139 -1592,-139 -1624,0 -2686,984 -2686,2767 V 7112 H 4194.0001 V 9168 H 6000 v 4969 C 4114.2323,14035.382 2624.6038,13004.385 1275.5805,11455.616 -560.48312,9347.6926 -213.58502,5578.586 542.1524,3934.0169 1100.5188,2718.9491 2155.1007,1508.8312 3706.4276,666.70153 6176.4734,-674.14983 11040.625,366.94424 11805.503,1433.1352 c 0,0 2182.222,1710.8104 2333.9,5513.7094 64.791,1624.4469 -219.837,3089.6644 -1456.166,4579.9244 C 11112.779,13419.784 8919.1025,13971.501 8222,14137 V 9168 Z"
     fill="#ffffff"
     id="path4-1"
     style="fill:#353535;fill-opacity:1"
     sodipodi:nodetypes="cccssccsscccccssssssccc" />
  <path
     d="M9879 9168l315-2056H8222V5778c0-562 275-1111 1159-1111h897V2917s-814-139-1592-139c-1624 0-2686 984-2686 2767v1567H4194v2056h1806v4969c362 57 733 86 1111 86s749-30 1111-86V9168z"
     fill="#fff"
     id="path4"
     style="fill:#ffffff;fill-opacity:0" />
  <circle
     style="fill:#333333;fill-opacity:1;stroke-width:14.2519"
     id="path5731"
     cx="28867.926"
     cy="13387.825"
     r="7015.2749" />
</svg>
