<?xml version="1.0" encoding="UTF-8" standalone="no"?>
<svg
   viewBox="0 0 512 512"
   version="1.1"
   id="svg8"
   sodipodi:docname="Instagram-gray.svg"
   inkscape:version="1.1 (c68e22c387, 2021-05-23)"
   xmlns:inkscape="http://www.inkscape.org/namespaces/inkscape"
   xmlns:sodipodi="http://sodipodi.sourceforge.net/DTD/sodipodi-0.dtd"
   xmlns="http://www.w3.org/2000/svg"
   xmlns:svg="http://www.w3.org/2000/svg">
  <defs
     id="defs12">
    <marker
       style="overflow:visible"
       id="Arrow1Lstart"
       refX="0.0"
       refY="0.0"
       orient="auto"
       inkscape:stockid="Arrow1Lstart"
       inkscape:isstock="true">
      <path
         transform="scale(0.8) translate(12.5,0)"
         style="fill-rule:evenodd;fill:context-stroke;stroke:context-stroke;stroke-width:1.0pt"
         d="M 0.0,0.0 L 5.0,-5.0 L -12.5,0.0 L 5.0,5.0 L 0.0,0.0 z "
         id="path5252" />
    </marker>
  </defs>
  <sodipodi:namedview
     id="namedview10"
     pagecolor="#ffffff"
     bordercolor="#666666"
     borderopacity="1.0"
     inkscape:pageshadow="2"
     inkscape:pageopacity="0.0"
     inkscape:pagecheckerboard="true"
     showgrid="false"
     inkscape:zoom="0.70710678"
     inkscape:cx="296.27774"
     inkscape:cy="374.05949"
     inkscape:window-width="1600"
     inkscape:window-height="837"
     inkscape:window-x="-8"
     inkscape:window-y="-8"
     inkscape:window-maximized="1"
     inkscape:current-layer="svg8" />
  <path
     style="fill:#000000;stroke:#ffffff;stroke-opacity:1"
     d="M256,49.471c67.266,0,75.233.257,101.8,1.469,24.562,1.121,37.9,5.224,46.778,8.674a78.052,78.052,0,0,1,28.966,18.845,78.052,78.052,0,0,1,18.845,28.966c3.45,8.877,7.554,22.216,8.674,46.778,1.212,26.565,1.469,34.532,1.469,101.8s-0.257,75.233-1.469,101.8c-1.121,24.562-5.225,37.9-8.674,46.778a83.427,83.427,0,0,1-47.811,47.811c-8.877,3.45-22.216,7.554-46.778,8.674-26.56,1.212-34.527,1.469-101.8,1.469s-75.237-.257-101.8-1.469c-24.562-1.121-37.9-5.225-46.778-8.674a78.051,78.051,0,0,1-28.966-18.845,78.053,78.053,0,0,1-18.845-28.966c-3.45-8.877-7.554-22.216-8.674-46.778-1.212-26.564-1.469-34.532-1.469-101.8s0.257-75.233,1.469-101.8c1.121-24.562,5.224-37.9,8.674-46.778A78.052,78.052,0,0,1,78.458,78.458a78.053,78.053,0,0,1,28.966-18.845c8.877-3.45,22.216-7.554,46.778-8.674,26.565-1.212,34.532-1.469,101.8-1.469m0-45.391c-68.418,0-77,.29-103.866,1.516-26.815,1.224-45.127,5.482-61.151,11.71a123.488,123.488,0,0,0-44.62,29.057A123.488,123.488,0,0,0,17.3,90.982C11.077,107.007,6.819,125.319,5.6,152.134,4.369,179,4.079,187.582,4.079,256S4.369,333,5.6,359.866c1.224,26.815,5.482,45.127,11.71,61.151a123.489,123.489,0,0,0,29.057,44.62,123.486,123.486,0,0,0,44.62,29.057c16.025,6.228,34.337,10.486,61.151,11.71,26.87,1.226,35.449,1.516,103.866,1.516s77-.29,103.866-1.516c26.815-1.224,45.127-5.482,61.151-11.71a128.817,128.817,0,0,0,73.677-73.677c6.228-16.025,10.486-34.337,11.71-61.151,1.226-26.87,1.516-35.449,1.516-103.866s-0.29-77-1.516-103.866c-1.224-26.815-5.482-45.127-11.71-61.151a123.486,123.486,0,0,0-29.057-44.62A123.487,123.487,0,0,0,421.018,17.3C404.993,11.077,386.681,6.819,359.866,5.6,333,4.369,324.418,4.079,256,4.079h0Z"
     id="path2" />
  <path
     style="fill:#000000;stroke:#ffffff;stroke-opacity:1"
     d="M256,126.635A129.365,129.365,0,1,0,385.365,256,129.365,129.365,0,0,0,256,126.635Zm0,213.338A83.973,83.973,0,1,1,339.974,256,83.974,83.974,0,0,1,256,339.973Z"
     id="path4" />
  <circle
     style="fill:#000000;stroke:#ffffff;stroke-opacity:1"
     cx="390.476"
     cy="121.524"
     r="30.23"
     id="circle6" />
  <path
     style="fill:#6f6f6f;stroke-width:0.984615;stroke:#ffffff;stroke-opacity:0.99196786;marker-start:url(#Arrow1Lstart);fill-opacity:1"
     d="m 165.90769,506.5044 c -31.08,-1.16719 -45.7243,-3.19124 -64.38103,-8.89838 C 79.525473,490.87582 63.435815,481.18559 47.166394,464.86678 35.030783,452.69432 27.862202,442.7286 21.624925,429.35915 6.911466,397.82122 4.4494127,372.97076 4.4494127,256 4.4494127,139.02924 6.911466,114.17878 21.624925,82.640849 27.872958,69.248348 35.043294,59.289496 47.166394,47.166394 59.289496,35.043294 69.248348,27.872958 82.640849,21.624925 114.20542,6.8990333 138.98555,4.4430375 256,4.4430375 c 90.30008,0 122.60051,1.6315983 145.23077,7.3360735 27.46221,6.922476 44.76486,16.549308 63.60283,35.387283 18.83798,18.837976 28.46481,36.140628 35.38729,63.602836 5.68864,22.56746 7.3297,55.08334 7.3297,145.23077 0,85.52558 -1.61708,121.08762 -6.4546,141.9466 -6.47599,27.92388 -18.38126,49.69325 -37.19012,68.0039 -10.8477,10.56038 -19.0655,16.49894 -31.81093,22.98803 -23.10128,11.76157 -44.30006,15.91839 -89.94109,17.63632 -29.67757,1.11706 -145.86151,1.07062 -176.24616,-0.0705 z m 168.71207,-44.23683 c 33.72925,-1.06441 43.98504,-2.03807 57.74947,-5.48257 11.52443,-2.88394 26.91426,-10.38697 35.24576,-17.18341 18.06671,-14.73797 29.2598,-37.36634 32.61715,-65.94005 3.9541,-33.65245 3.97309,-202.81398 0.0264,-235.32308 C 458.04891,120.13753 452.63619,103.30737 445.3755,92.061538 439.73634,83.32718 426.75417,70.627717 418.37699,65.650923 404.0681,57.150169 386.26253,52.483077 361.35385,50.704348 338.2696,49.055901 222.63098,48.338442 182.15385,49.592534 144.79756,50.749933 135.03309,51.570928 121.8881,54.65967 102.90663,59.119838 90.552836,65.850889 77.712062,78.729292 60.889019,95.601632 53.224425,115.8738 50.707546,150.15385 c -2.832112,38.57351 -2.097293,198.14136 1.029486,223.5557 2.244626,18.24424 7.884159,35.52973 15.280561,46.83578 4.873471,7.44953 17.008766,19.57736 24.481821,24.46678 11.595486,7.5866 28.483866,13.04669 47.300086,15.29235 22.04306,2.63077 137.86854,3.79193 195.82026,1.96311 z"
     id="path51" />
  <path
     style="fill:#6f6f6f;stroke-width:0.984615;stroke:#ffffff;stroke-opacity:1;fill-opacity:1"
     d="M 233.9414,382.90531 C 209.2903,378.77425 185.68751,366.62747 166.81601,348.36034 140.9312,323.30451 127.51561,291.77635 127.51561,256 c 0,-34.27777 12.24943,-64.51947 36.12405,-89.18399 24.95532,-25.78097 56.56484,-39.30355 91.86803,-39.30121 36.30228,0.002 67.65991,13.27496 92.85265,39.30121 23.92224,24.71372 36.11655,54.84054 36.12801,89.25663 0.0113,34.12172 -12.32988,64.52614 -36.20111,89.18668 -19.63679,20.28608 -44.39983,33.37462 -71.44134,37.76043 -11.11857,1.8033 -31.7899,1.74816 -42.9045,-0.11444 z m 39.08473,-44.27647 c 33.3192,-6.83031 58.94664,-32.68528 65.73436,-66.31798 2.21014,-10.95114 1.52503,-28.8923 -1.50499,-39.41126 -6.4087,-22.24833 -21.84122,-41.05411 -42.43035,-51.70482 -13.76989,-7.12314 -21.44258,-8.87753 -38.82515,-8.87753 -17.38257,0 -25.05526,1.75439 -38.82515,8.87753 -15.9018,8.22597 -27.78313,20.09592 -35.95756,35.92311 -7.1493,13.84237 -8.90004,21.49093 -8.90004,38.88211 0,17.38257 1.75439,25.05526 8.87753,38.82515 12.20101,23.58604 35.13525,40.24343 61.51291,44.67751 6.24609,1.04997 23.33683,0.55739 30.31844,-0.87382 z"
     id="path90" />
  <path
     style="fill:#6f6f6f;stroke-width:0.984615;stroke:#ffffff;stroke-opacity:1;fill-opacity:1"
     d="m 379.63085,149.04059 c -3.20422,-1.26635 -7.19967,-3.96179 -9.95124,-6.71336 -17.98616,-17.98616 -6.55714,-48.218799 18.91981,-50.047669 12.61947,-0.905892 23.52161,5.747124 28.84093,17.600139 4.70365,10.48113 2.67252,22.58452 -5.31706,31.68416 -7.53187,8.57832 -21.54577,11.80302 -32.49244,7.47673 z"
     id="path129" />
  <path
     style="fill:#ffffff;stroke-width:0.984615"
     d=""
     id="path214" />
  <path
     style="fill:#ffffff;stroke-width:0.123077"
     d="m 79.569231,489.62135 c -1.793846,-0.8997 -4.036923,-2.06966 -4.984615,-2.59991 -8.015176,-4.48457 -15.513393,-9.82649 -22.523077,-16.04602 -2.114948,-1.87654 -9.232765,-8.99936 -11.090709,-11.0985 -10.659664,-12.04348 -18.158028,-24.50419 -23.922292,-39.75384 -3.461466,-9.15749 -6.15464,-18.74464 -7.813758,-27.81539 -0.2414394,-1.32 -0.4613954,-2.50018 -0.4887912,-2.62263 -0.039829,-0.17802 0.015974,-0.21501 0.2784877,-0.18461 0.2965773,0.0343 0.3380704,0.10342 0.4294342,0.71494 0.4899206,3.27913 1.6411453,8.92519 2.6220463,12.85955 1.83907,7.37643 3.903461,13.4833 7.031986,20.80198 6.523138,15.25985 12.860483,24.99652 24.032248,36.92308 6.329746,6.7574 12.940002,12.76245 19.259809,17.49646 5.863366,4.3921 11.034784,7.5755 17.904763,11.02174 l 3.873994,1.94334 -0.673994,-0.002 c -0.617281,-0.002 -0.948432,-0.13982 -3.935532,-1.63801 z"
     id="path253" />
  <path
     style="fill:#ffffff;stroke-width:0.0108786"
     d="m 48.284515,467.53754 c -0.665122,-0.6496 -3.011377,-2.99585 -3.68094,-3.68093 -1.169956,-1.19706 -2.121127,-2.20618 -3.183843,-3.37779 -0.415568,-0.45816 -1.165684,-1.29976 -1.33563,-1.49853 -0.01512,-0.0177 -0.0131,-0.019 0.02844,-0.019 h 0.04471 l 0.350724,0.39978 c 0.624163,0.71148 0.857544,0.96798 1.476966,1.62329 1.37004,1.44942 3.95518,4.073 6.103762,6.19454 l 0.788696,0.77876 -0.08159,-2e-4 -0.08159,-2.1e-4 -0.429703,-0.41968 z"
     id="path292" />
  <path
     style="fill:#ffffff;stroke-width:0.0108786"
     d=""
     id="path331" />
  <path
     style="fill:#ffffff;stroke-width:0.0108786"
     d="m 50.006275,467.72146 c -2.634309,-2.51361 -5.251138,-5.1759 -7.782194,-7.91737 -0.734399,-0.79546 -0.771393,-0.83714 -0.746586,-0.84116 0.0273,-0.004 0.007,-0.0252 0.519209,0.53134 2.34824,2.55148 5.337757,5.60334 7.800081,7.96274 0.567041,0.54334 0.525486,0.50082 0.489447,0.50082 -0.02715,0 -0.07138,-0.0374 -0.279957,-0.23637 z"
     id="path370" />
  <path
     style="fill:#ffffff;stroke-width:0.00390625"
     d=""
     id="path409" />
  <path
     style="fill:#ffffff;stroke-width:0.00390625"
     d="m 43.857422,465.10547 v -1.61524 l 0.186523,7e-5 0.186524,6e-5 0.177543,0.18255 c 0.350892,0.3608 0.862903,0.87812 1.307386,1.32093 0.559709,0.55762 0.728417,0.72631 1.284626,1.28448 l 0.440824,0.44238 h -1.791713 -1.791713 z"
     id="path448" />
  <path
     style="fill:#ffffff;stroke-width:0.00390625"
     d="m 46.32588,465.58496 c -1.235053,-1.23626 -1.574355,-1.57858 -2.036542,-2.05469 l -0.03887,-0.04 h 0.07831 0.07831 l 0.368725,0.37399 c 0.700505,0.71048 1.192136,1.20517 2.016764,2.02928 l 0.827726,0.8272 h -0.07989 -0.07989 z"
     id="path487" />
  <path
     style="fill:#ffffff;stroke-width:0.00390625"
     d=""
     id="path526" />
  <path
     style="fill:#ffffff;stroke-width:0.00390625"
     d=""
     id="path565" />
  <path
     style="fill:#ffffff;stroke-width:0.00390625"
     d=""
     id="path604" />
  <path
     style="fill:#ffffff;stroke-width:0.00390625"
     d="m 47.245025,466.32932 c -0.748494,-0.74453 -2.019225,-2.02137 -2.646679,-2.6594 l -0.174788,-0.17773 0.64369,-10e-4 0.643689,-0.001 0.0332,0.0342 c 0.648798,0.66872 2.064513,2.08304 2.894531,2.89168 0.08701,0.0848 0.192956,0.18801 0.235432,0.22941 l 0.07723,0.0753 h -0.656423 -0.656423 z"
     id="path643" />
  <path
     style="fill:#ffffff;stroke-width:0.00390625"
     d=""
     id="path682" />
  <path
     style="fill:#ffffff;stroke-width:0.00390625"
     d=""
     id="path721" />
  <path
     style="fill:#ffffff;stroke-width:0.00390625"
     d="m 47.126013,466.21087 c -0.715345,-0.7113 -2.192412,-2.19714 -2.656998,-2.67278 l -0.04674,-0.0479 h 0.644577 0.644576 l 0.03881,0.04 c 0.576278,0.59451 1.915172,1.93401 2.702885,2.70411 0.100977,0.0987 0.21875,0.21386 0.261719,0.25587 0.04297,0.042 0.113823,0.11105 0.157454,0.15342 l 0.07933,0.077 h -0.656442 -0.656441 z"
     id="path760" />
</svg>
