<svg width="32px" height="32px" viewBox="0 0 32 32" version="1.1" xmlns="http://www.w3.org/2000/svg" xmlns:xlink="http://www.w3.org/1999/xlink"><defs><polygon id="path-1" points="0.245 0.11062069 10.68116 0.11062069 10.68116 10.4137931 0.245 10.4137931"></polygon><polygon id="path-3" points="0 31.7241379 27.76116 31.7241379 27.76116 0.11062069 0 0.11062069"></polygon></defs><g id="payments-invoices-32" stroke="none" stroke-width="1" fill="none" fill-rule="evenodd"><g id="Group-12" transform="translate(2.000000, 0.000000)"><path d="M0,0.337737931 L0,31.8894621 L27.72,31.8894621 L27.72,9.44091034 L18.48,0.337737931 L0,0.337737931 Z M1.575,1.78601379 L17.745,1.78601379 L26.145,10.0616 L26.145,30.3377379 L1.575,30.3377379 L1.575,1.78601379 Z" id="Fill-1" fill="#3C4859"></path><g id="Group-11" transform="translate(0.000000, 0.165241)"><g id="Group-4" transform="translate(17.080000, 0.000000)"><mask id="mask-2" fill="white"><use xlink:href="#path-1"></use></mask><g id="Clip-3"></g><path d="M1.82,8.86206897 L7.91,8.86206897 L1.82,2.86206897 L1.82,8.86206897 Z M9.905,10.4137931 L1.085,10.4137931 C0.665,10.4137931 0.245,10.1034483 0.245,9.5862069 L0.245,0.896551724 C0.245,0.586206897 0.455,0.275862069 0.77,0.172413793 C1.085,0.0689655172 1.4,0.0689655172 1.61,0.379310345 L10.43,9.06896552 C10.64,9.27586207 10.745,9.5862069 10.64,9.89655172 C10.43,10.2068966 10.22,10.4137931 9.905,10.4137931 Z" id="Fill-2" fill="#3C4859" mask="url(#mask-2)"></path></g><mask id="mask-4" fill="white"><use xlink:href="#path-3"></use></mask><g id="Clip-6"></g><polygon id="Fill-5" fill="#3C4859" mask="url(#mask-4)" points="6.51 7.93103448 12.495 7.93103448 12.495 6.37931034 6.51 6.37931034"></polygon><polygon id="Fill-7" fill="#3C4859" mask="url(#mask-4)" points="6.51 12.2758621 12.495 12.2758621 12.495 10.7241379 6.51 10.7241379"></polygon><polygon id="Fill-8" fill="#3C4859" mask="url(#mask-4)" points="6.51 16.7241379 21.21 16.7241379 21.21 15.1724138 6.51 15.1724138"></polygon><polygon id="Fill-9" fill="#3C4859" mask="url(#mask-4)" points="6.51 21.0689655 21.21 21.0689655 21.21 19.5172414 6.51 19.5172414"></polygon><polygon id="Fill-10" fill="#3C4859" mask="url(#mask-4)" points="6.51 25.4137931 21.21 25.4137931 21.21 23.862069 6.51 23.862069"></polygon></g></g></g></svg>