<?xml version="1.0" encoding="UTF-8" standalone="no"?>
<svg
   height="2500"
   width="2179"
   viewBox="-0.32296740998066475 -3.1283528999801873 42.68446958125966 42.128352899980186"
   version="1.1"
   id="svg14"
   sodipodi:docname="tiktok-gray.svg"
   inkscape:version="1.1 (c68e22c387, 2021-05-23)"
   xmlns:inkscape="http://www.inkscape.org/namespaces/inkscape"
   xmlns:sodipodi="http://sodipodi.sourceforge.net/DTD/sodipodi-0.dtd"
   xmlns="http://www.w3.org/2000/svg"
   xmlns:svg="http://www.w3.org/2000/svg">
  <defs
     id="defs18" />
  <sodipodi:namedview
     id="namedview16"
     pagecolor="#ffffff"
     bordercolor="#666666"
     borderopacity="1.0"
     inkscape:pageshadow="2"
     inkscape:pageopacity="0.0"
     inkscape:pagecheckerboard="true"
     showgrid="false"
     inkscape:zoom="0.25"
     inkscape:cx="890"
     inkscape:cy="1122"
     inkscape:window-width="1600"
     inkscape:window-height="837"
     inkscape:window-x="-8"
     inkscape:window-y="-8"
     inkscape:window-maximized="1"
     inkscape:current-layer="svg14" />
  <g
     fill="none"
     id="g12"
     style="fill:#6f6f6f;fill-opacity:1">
    <path
       d="M23.979 25.42V12.632A15.741 15.741 0 0 0 33 15.448v-4.89a9.083 9.083 0 0 1-4.912-2.82C26.016 6.431 24.586 4.358 24.132 2h-4.747l-.01 25.215c-.11 2.824-2.505 5.09-5.44 5.09-1.754-.002-3.398-.822-4.42-2.204-1.794-.913-2.919-2.716-2.92-4.682.003-2.92 2.44-5.285 5.45-5.289.56 0 1.098.09 1.608.245v-4.933C7.202 15.589 2 20.722 2 27.016c0 3.045 1.219 5.816 3.205 7.885A12.115 12.115 0 0 0 12.045 37c6.58 0 11.934-5.195 11.934-11.58"
       fill="#fff"
       id="path10"
       style="fill:#6f6f6f;fill-opacity:1" />
  </g>
</svg>
