<?xml version="1.0" encoding="UTF-8" standalone="no"?>
<!-- Created with Inkscape (http://www.inkscape.org/) -->

<svg
   version="1.1"
   id="svg46756"
   width="93.046715"
   height="100.2198"
   viewBox="0 0 93.046714 100.21979"
   sodipodi:docname="favicon117.svg"
   inkscape:export-filename="D:\Downloads\favicon1259.png"
   inkscape:export-xdpi="33.02"
   inkscape:export-ydpi="33.02"
   inkscape:version="1.1 (c68e22c387, 2021-05-23)"
   xmlns:inkscape="http://www.inkscape.org/namespaces/inkscape"
   xmlns:sodipodi="http://sodipodi.sourceforge.net/DTD/sodipodi-0.dtd"
   xmlns="http://www.w3.org/2000/svg"
   xmlns:svg="http://www.w3.org/2000/svg">
  <defs
     id="defs46760" />
  <sodipodi:namedview
     id="namedview46758"
     pagecolor="#ffffff"
     bordercolor="#666666"
     borderopacity="1.0"
     inkscape:pageshadow="2"
     inkscape:pageopacity="0.0"
     inkscape:pagecheckerboard="0"
     showgrid="false"
     inkscape:zoom="2"
     inkscape:cx="20.25"
     inkscape:cy="59.25"
     inkscape:window-width="1360"
     inkscape:window-height="705"
     inkscape:window-x="-8"
     inkscape:window-y="-8"
     inkscape:window-maximized="1"
     inkscape:current-layer="g46762"
     fit-margin-top="0"
     fit-margin-left="0"
     fit-margin-right="0"
     fit-margin-bottom="0" />
  <g
     inkscape:groupmode="layer"
     inkscape:label="Image"
     id="g46762"
     transform="translate(-6.7470992,-0.32986309)">
    <g
       id="g46940"
       transform="matrix(0.42907548,0,0,0.42907548,-21.212401,-27.866189)"
       inkscape:export-filename="D:\Downloads\g46940.png"
       inkscape:export-xdpi="37.913925"
       inkscape:export-ydpi="37.913925">
      <path
         style="fill:#d5b4b4;stroke-width:0.666667"
         d="m 75.329022,298.71045 c -5.023247,-1.528 -8.727862,-5.02316 -10.043135,-9.4753 -0.463148,-1.56774 0.357412,-30.80087 2.748054,-97.90181 1.874607,-52.61667 3.52444,-96.041671 3.666294,-96.500005 0.201053,-0.649606 6.52504,-0.833333 28.683505,-0.833333 26.81954,0 28.3971,0.06593 27.92158,1.166667 -2.07646,4.80664 -4.43806,12.380291 -5.08848,16.318731 -0.66049,3.9994 -1.1158,5.01502 -3.03802,6.7766 -7.13352,6.53739 1.11837,17.90507 9.75529,13.43874 4.76302,-2.46305 5.90845,-9.88993 2.06215,-13.37079 -0.73128,-0.66179 -1.32959,-1.85878 -1.32959,-2.65997 0,-2.86206 2.72706,-12.08604 4.97774,-16.836645 l 2.28987,-4.833333 h 35.5944 35.5944 l 2.3992,5.166667 c 3.11564,6.709501 5.99294,18.166671 4.5623,18.166671 -0.35337,0 -1.30374,1.0699 -2.11192,2.37757 -2.05405,3.32353 -1.54988,7.68623 1.20683,10.44294 2.71353,2.71353 7.12261,3.25891 10.32847,1.27757 2.77275,-1.71365 3.82538,-3.8831 3.82538,-7.88407 0,-2.63827 -0.32414,-3.36228 -2.36852,-5.29037 -1.97584,-1.86347 -2.47874,-2.92648 -3.03346,-6.41205 -0.36572,-2.29805 -1.56946,-6.72826 -2.67498,-9.84493 -1.10551,-3.116665 -2.17544,-6.191665 -2.37762,-6.833331 -0.34616,-1.098614 1.28972,-1.166667 28.04349,-1.166667 15.6261,0 28.41322,0.225 28.41582,0.5 0.003,0.275 1.35457,37.099998 3.00438,81.833338 4.25018,115.24105 4.16758,111.39493 2.46396,114.72979 -1.78373,3.49167 -5.40783,6.67101 -8.62152,7.56346 -2.95665,0.82107 -194.164542,0.90252 -196.855868,0.0839 z m 75.337648,-60.07424 c -0.7716,-41.07784 11.33349,-24.92633 31.98503,-0.0864 12.92444,15.15241 23.85754,27.68743 24.29578,27.85559 0.43825,0.16818 4.3125,0.22075 8.60944,0.11684 l 7.81263,-0.18893 -27.03113,-30.64246 -27.03112,-30.64246 26.17968,-26.35754 26.17969,-26.35754 -8.33333,-0.19276 -8.33334,-0.19276 -23.22623,23.69276 -23.22623,23.69276 h -3.94044 -3.94043 V 175.66667 152 h -6 -6 v 57.33334 57.33333 h 6 6 z M 123.66838,124.42952 c -0.88396,-1.3491 -0.92598,-2.4946 -0.29804,-8.12594 1.6727,-15.00094 7.75046,-27.536332 18.13022,-37.393645 5.73404,-5.445427 11.71464,-9.02842 19.05501,-11.415914 6.53627,-2.125958 17.41289,-2.385796 24.1111,-0.576006 14.04367,3.794453 25.57467,13.69366 32.71104,28.081987 4.20349,8.475068 6.03149,15.471378 6.17678,23.640528 l 0.11218,6.30719 -1.84381,0.65852 c -2.9687,1.06028 -3.9355,-0.52283 -4.51612,-7.39504 -0.65394,-7.74014 -2.15304,-13.34782 -5.34477,-19.993091 -12.65049,-26.338721 -42.29814,-34.23314 -63.72773,-16.969087 -10.55105,8.500113 -17.3824,22.244208 -18.65786,37.538008 -0.26456,3.17225 -0.8258,5.70049 -1.3909,6.26559 -1.4145,1.41451 -3.35763,1.14646 -4.5171,-0.6231 z"
         id="path46946"
         sodipodi:nodetypes="ssssscsssssscccssssssssssscsssssccssccccccccccccccccccccscssssscsssssss" />
      <path
         style="fill:#d2a9aa;stroke-width:0.666667"
         d="m 76.080168,298.62025 c -3.291853,-0.65418 -5.234313,-1.77159 -7.73166,-4.44769 -3.830905,-4.10511 -3.829599,0.80368 -0.02753,-103.35867 1.917453,-52.53053 3.638746,-95.662521 3.825093,-95.848875 0.3601,-0.3601 55.212699,-0.495106 55.571029,-0.136773 0.11603,0.116027 -0.81608,3.19898 -2.07137,6.851008 -1.25529,3.65202 -2.47908,8.37904 -2.71955,10.50449 -0.32092,2.83662 -0.77769,4.04666 -1.71738,4.54956 -2.00455,1.07281 -3.87026,4.68436 -3.873,7.49718 -0.005,5.03092 3.56491,8.43619 8.8438,8.43619 7.26065,0 11.1261,-8.80995 6.14611,-14.00793 -1.73538,-1.81135 -1.76137,-1.95946 -1.01039,-5.75895 1.08987,-5.51407 2.56962,-9.96527 4.78704,-14.399788 1.87841,-3.75654 1.97338,-3.833587 4.74055,-3.84612 1.55305,-0.007 17.48268,-0.01793 35.39917,-0.02427 30.50979,-0.01073 32.63158,0.06407 33.46074,1.17946 1.66215,2.23594 4.94947,11.415788 5.74104,16.031878 0.77656,4.52853 0.75946,4.64809 -0.99353,6.94637 -1.28028,1.67857 -1.78366,3.12973 -1.78366,5.14205 0,5.58019 3.22159,8.7373 8.91574,8.7373 7.64358,0 11.09043,-9.8058 5.20643,-14.81151 -1.44225,-1.22697 -2.02437,-2.68288 -3.00449,-7.51434 -0.66861,-3.29588 -2.06152,-8.17088 -3.09535,-10.833334 l -1.8797,-4.84082 5.09535,-0.01507 c 25.29645,-0.07479 50.96849,0.0053 51.09629,0.159353 0.0862,0.103974 0.79229,17.739041 1.569,39.189041 0.77671,21.45 2.34632,64.44255 3.48801,95.539 1.1417,31.09644 1.88877,57.53602 1.66016,58.75462 -0.64966,3.46299 -4.07054,7.63432 -7.59755,9.26427 L 271.00001,299 175,299.10025 c -52.8,0.0551 -97.313925,-0.16086 -98.919832,-0.48 z M 124.35686,125.09964 c -1.10183,-0.80568 -1.18756,-1.55929 -0.81528,-7.16666 1.62753,-24.514325 17.73212,-45.305679 39.43182,-50.907279 5.08504,-1.31266 15.4191,-1.306298 21.01649,0.01293 12.74587,3.00404 25.03129,12.82672 32.2784,25.80786 3.45696,6.19216 6.20447,15.165489 7.14803,23.345369 0.80195,6.95231 0.78368,7.23776 -0.54834,8.5698 -0.94763,0.94762 -1.8183,1.23816 -2.78807,0.93036 -1.59497,-0.50622 -1.71602,-0.93484 -2.73712,-9.69202 -3.94825,-33.861169 -35.2246,-53.650386 -62.33899,-39.443222 -8.94044,4.68454 -17.78647,14.876153 -21.71316,25.015982 -2.22091,5.73504 -3.9573,13.80825 -3.9573,18.39914 0,2.47255 -0.35258,3.71402 -1.33334,4.69477 -1.5753,1.57531 -2.01022,1.62699 -3.64314,0.43297 z"
         id="path46944"
         sodipodi:nodetypes="ssscsssccssssccsssssssscscssssccssssssssssssscs" />
      <path
         style="fill:#cd9595;stroke-width:0.666667"
         d="m 73.33809,298.23165 c -5.85934,-2.54973 -8.00525,-6.59346 -8.00345,-15.08161 0.001,-6.23408 5.56313,-162.56169 6.36939,-179.02658 l 0.43256,-8.833328 h 28.00302 c 26.41488,0 27.97478,0.0662 27.5049,1.166666 -2.02352,4.739222 -3.74566,10.199442 -4.6958,14.888582 -0.90974,4.48979 -1.46629,5.79968 -3.01943,7.10656 -1.05703,0.88943 -2.2249,2.79354 -2.6252,4.28015 -0.62953,2.3379 -0.52532,3.06799 0.82074,5.74976 2.94206,5.86149 8.86003,6.97845 13.66129,2.57843 1.84109,-1.68724 2.41876,-2.80134 2.68715,-5.18257 0.34985,-3.10386 -0.70426,-6.17612 -2.68234,-7.81778 -0.82668,-0.68608 -0.8392,-1.43724 -0.0881,-5.28477 1.00702,-5.15824 2.83885,-10.6531 4.89513,-14.683762 l 1.4291,-2.801266 h 35.55444 35.55442 l 2.09475,4.544626 C 213.34002,104.41098 216,113.59049 216,116.29345 c 0,0.80119 -0.5887,1.98948 -1.30823,2.64064 -3.17301,2.87154 -3.10389,9.15517 0.13407,12.1884 3.6693,3.43728 8.31197,3.46927 12.16776,0.0838 3.89008,-3.41553 3.94858,-8.87144 0.13602,-12.68401 -1.7408,-1.74081 -2.30467,-3.12564 -3.32097,-8.15618 -0.67328,-3.33266 -2.07789,-8.09135 -3.12136,-10.574875 l -1.89721,-4.515507 28.10223,0.173854 28.10224,0.173853 c 0,0 2.34053,64.206715 3.5108,96.310075 1.17027,32.10336 3.5108,96.31008 3.5108,96.31008 l -1.68181,3.43749 c -1.0772,2.20172 -2.67732,4.12741 -4.45098,5.3566 l -2.76917,1.9191 -98.72376,0.14407 c -87.07681,0.12706 -98.99848,0.0245 -101.05234,-0.86923 z m 50.6466,-173.29328 c -0.61342,-0.73914 -0.72946,-2.52451 -0.42312,-6.50998 1.77334,-23.070485 16.49502,-43.191906 36.43842,-49.803619 6.22008,-2.062109 16.28333,-2.517073 22.93617,-1.03696 18.73808,4.168827 34.34919,20.801334 39.14139,41.702319 1.22543,5.34466 1.90824,14.11422 1.20174,15.43433 -0.751,1.40325 -3.45569,1.64626 -4.44106,0.39901 -0.3621,-0.45833 -0.85143,-3.25526 -1.08739,-6.21539 -1.08422,-13.60128 -6.0805,-24.606888 -15.4175,-33.961122 C 193.88189,76.479925 184.82915,72.464264 174,72.378718 c -12.97031,-0.10246 -24.62282,5.695833 -33.11719,16.479127 -6.54108,8.303653 -11.53285,21.371205 -11.54481,30.222225 -0.007,4.75158 -0.90465,6.87674 -2.90654,6.87674 -0.88085,0 -1.98189,-0.4583 -2.44677,-1.01844 z"
         id="path46942"
         sodipodi:nodetypes="ssscscssssssscscccsssssssscscscsscsssscssssssssscss" />
    </g>
    <path
       style="fill:#ffffff;stroke-width:0.641026"
       d="M 770.83336,160.25641 V -6.0897438 H 937.17951 1103.5257 V 160.25641 326.60257 H 937.17951 770.83336 Z m 274.40034,131.25001 c 2.274,-1.15311 4.1429,-2.72324 5.4034,-4.53959 1.87,-2.69466 1.9329,-3.0264 2.1261,-11.21795 0.2516,-10.665 -5.9149,-185.406942 -6.6148,-187.447596 -0.2144,-0.625051 -6.6074,-0.801282 -29.068,-0.801282 h -28.79324 l -2.57256,-4.326923 c -3.97897,-6.692417 -13.81789,-15.923641 -20.67306,-19.396186 -6.9708,-3.531116 -12.37492,-4.771013 -20.81075,-4.774744 -9.13708,-0.0038 -13.66153,1.029051 -21.3424,4.873231 -6.79605,3.40134 -17.35787,13.409045 -20.70444,19.618212 l -2.15934,4.00641 h -29.33922 -29.33921 v 2.625911 c 0,1.444256 -1.46135,43.631757 -3.24743,93.749997 -1.78609,50.11825 -3.14898,93.03352 -3.02865,95.36727 0.30378,5.89184 2.71792,9.83081 7.51594,12.26324 l 3.47721,1.76282 h 97.84703 97.84702 z"
       id="path46803" />
    <path
       style="fill:#ffffff;stroke-width:0.010016"
       d=""
       id="path47406"
       transform="translate(1.9230729)" />
    <path
       style="fill:#ffffff;stroke-width:0.010016"
       d=""
       id="path47445"
       transform="translate(1.9230729)" />
    <path
       style="fill:#ffffff;stroke-width:0.0220971"
       d=""
       id="path48539"
       transform="translate(1.9230729)" />
    <path
       style="fill:#ffffff;stroke-width:0.318867"
       d="M 33.230269,95.889529 C 33.123818,95.612116 33.03672,81.478297 33.03672,64.481033 V 33.576917 h 3.348114 3.348114 v 12.75472 12.75472 h 2.360127 2.360128 l 12.387516,-12.745529 12.387518,-12.745529 4.73334,-0.0092 4.733337,-0.0092 -13.394856,13.631606 c -7.367173,7.497384 -13.708009,14.030429 -14.090753,14.517878 -0.632509,0.805544 -0.652926,0.950765 -0.224153,1.59434 0.259455,0.389439 4.685528,5.500528 9.835715,11.357972 5.150184,5.857449 11.481768,13.103725 14.070181,16.102834 l 4.706204,5.452918 -4.544302,0.08895 C 71.481386,96.393355 70.43986,96.3186 70.187292,95.972865 70.010548,95.731171 64.082194,88.767727 57.013174,80.498562 L 44.160411,65.463717 h -2.213732 -2.213731 v 15.465098 15.465099 h -3.154564 c -2.582397,0 -3.189671,-0.09144 -3.348115,-0.504385 z"
       id="path60497" />
  </g>
</svg>
